<svg xmlns="http://www.w3.org/2000/svg" viewBox="0 0 64 64">
  <defs>
    <linearGradient id="g" x1="0" x2="1" y1="0" y2="1">
      <stop offset="0%" stop-color="#4da3ff"/>
      <stop offset="100%" stop-color="#0057d9"/>
    </linearGradient>
  </defs>
  <rect width="64" height="64" rx="12" fill="url(#g)"/>
  <!-- Head -->
  <circle cx="32" cy="30" r="14" fill="#5d4037"/>
  <circle cx="32" cy="32" r="10" fill="#ffe0b2"/>
  <!-- Ears -->
  <circle cx="16" cy="30" r="6" fill="#5d4037"/>
  <circle cx="48" cy="30" r="6" fill="#5d4037"/>
  <circle cx="16" cy="30" r="3.5" fill="#ffe0b2"/>
  <circle cx="48" cy="30" r="3.5" fill="#ffe0b2"/>
  <!-- Eyes -->
  <circle cx="27" cy="30" r="2.2" fill="#212121"/>
  <circle cx="37" cy="30" r="2.2" fill="#212121"/>
  <!-- Smile -->
  <path d="M26 36c2 2 4 3 6 3s4-1 6-3" stroke="#4e342e" stroke-width="2" stroke-linecap="round" fill="none"/>
  <!-- Headphones band -->
  <path d="M18 24c3-6 9-9 14-9s11 3 14 9" stroke="#212121" stroke-width="4" stroke-linecap="round" fill="none"/>
  <!-- Headphone cups -->
  <rect x="10" y="26" width="6" height="12" rx="2" fill="#212121"/>
  <rect x="48" y="26" width="6" height="12" rx="2" fill="#212121"/>
  <!-- Music note -->
  <path d="M42 14v12.5a3.5 3.5 0 1 1-2-3.15V14h2zm-6 3v9.5a3.5 3.5 0 1 1-2-3.15V17h2z" fill="#ffffff" opacity="0.9"/>
</svg>
